<mxfile host="app.diagrams.net" agent="Mozilla/5.0 (Windows NT 10.0; Win64; x64) AppleWebKit/537.36 (KHTML, like Gecko) Chrome/137.0.0.0 Safari/537.36" version="27.0.9">
  <diagram name="Page-1" id="CCntFlGasKvZ_MAsFrFe">
    <mxGraphModel dx="1389" dy="760" grid="1" gridSize="10" guides="1" tooltips="1" connect="1" arrows="1" fold="1" page="1" pageScale="1" pageWidth="850" pageHeight="1100" math="0" shadow="0">
      <root>
        <mxCell id="0" />
        <mxCell id="1" parent="0" />
        <mxCell id="NEy-l1g9SyOyBoJQKaNl-1" value="" style="verticalAlign=top;align=left;spacingTop=8;spacingLeft=2;spacingRight=12;shape=cube;size=10;direction=south;fontStyle=4;html=1;whiteSpace=wrap;fillColor=#f5f5f5;fontColor=#333333;strokeColor=#666666;" vertex="1" parent="1">
          <mxGeometry x="80" y="60" width="260" height="300" as="geometry" />
        </mxCell>
        <mxCell id="NEy-l1g9SyOyBoJQKaNl-2" value="" style="verticalAlign=top;align=left;spacingTop=8;spacingLeft=2;spacingRight=12;shape=cube;size=10;direction=south;fontStyle=4;html=1;whiteSpace=wrap;fillColor=#f5f5f5;fontColor=#333333;strokeColor=#666666;" vertex="1" parent="1">
          <mxGeometry x="490" y="60" width="260" height="300" as="geometry" />
        </mxCell>
        <mxCell id="NEy-l1g9SyOyBoJQKaNl-3" value="" style="verticalAlign=top;align=left;spacingTop=8;spacingLeft=2;spacingRight=12;shape=cube;size=10;direction=south;fontStyle=4;html=1;whiteSpace=wrap;fillColor=#dae8fc;strokeColor=#6c8ebf;" vertex="1" parent="1">
          <mxGeometry x="110" y="120" width="190" height="70" as="geometry" />
        </mxCell>
        <mxCell id="NEy-l1g9SyOyBoJQKaNl-4" value="" style="verticalAlign=top;align=left;spacingTop=8;spacingLeft=2;spacingRight=12;shape=cube;size=10;direction=south;fontStyle=4;html=1;whiteSpace=wrap;fillColor=#dae8fc;strokeColor=#6c8ebf;" vertex="1" parent="1">
          <mxGeometry x="105" y="260" width="190" height="70" as="geometry" />
        </mxCell>
        <mxCell id="NEy-l1g9SyOyBoJQKaNl-5" value="&lt;font style=&quot;font-size: 14px;&quot;&gt;&amp;lt;&amp;lt;device&amp;gt;&amp;gt;&lt;/font&gt;&lt;div&gt;&lt;span style=&quot;font-size: 14px;&quot;&gt;Klijent&lt;/span&gt;&lt;/div&gt;" style="text;align=center;fontStyle=1;verticalAlign=middle;spacingLeft=3;spacingRight=3;strokeColor=none;rotatable=0;points=[[0,0.5],[1,0.5]];portConstraint=eastwest;html=1;" vertex="1" parent="1">
          <mxGeometry x="155" y="80" width="100" height="30" as="geometry" />
        </mxCell>
        <mxCell id="NEy-l1g9SyOyBoJQKaNl-6" value="&lt;font style=&quot;font-size: 14px;&quot;&gt;&amp;lt;&amp;lt;server&amp;gt;&amp;gt;&lt;/font&gt;" style="text;align=center;fontStyle=1;verticalAlign=middle;spacingLeft=3;spacingRight=3;strokeColor=none;rotatable=0;points=[[0,0.5],[1,0.5]];portConstraint=eastwest;html=1;" vertex="1" parent="1">
          <mxGeometry x="560" y="70" width="100" height="30" as="geometry" />
        </mxCell>
        <mxCell id="NEy-l1g9SyOyBoJQKaNl-7" value="&lt;font style=&quot;font-size: 13px;&quot;&gt;&amp;lt;&amp;lt;operating system&amp;gt;&amp;gt;&lt;/font&gt;&lt;div&gt;&lt;font style=&quot;font-size: 13px;&quot;&gt;any&lt;/font&gt;&lt;/div&gt;" style="text;align=center;fontStyle=1;verticalAlign=middle;spacingLeft=3;spacingRight=3;strokeColor=none;rotatable=0;points=[[0,0.5],[1,0.5]];portConstraint=eastwest;html=1;" vertex="1" parent="1">
          <mxGeometry x="130" y="135" width="140" height="40" as="geometry" />
        </mxCell>
        <mxCell id="NEy-l1g9SyOyBoJQKaNl-8" value="&lt;font style=&quot;font-size: 13px;&quot;&gt;&amp;lt;&amp;lt;web browser&amp;gt;&amp;gt;&lt;/font&gt;&lt;div&gt;&lt;font style=&quot;font-size: 13px;&quot;&gt;any&lt;/font&gt;&lt;/div&gt;" style="text;align=center;fontStyle=1;verticalAlign=middle;spacingLeft=3;spacingRight=3;strokeColor=none;rotatable=0;points=[[0,0.5],[1,0.5]];portConstraint=eastwest;html=1;" vertex="1" parent="1">
          <mxGeometry x="120" y="280" width="150" height="30" as="geometry" />
        </mxCell>
        <mxCell id="NEy-l1g9SyOyBoJQKaNl-9" value="" style="verticalAlign=top;align=left;spacingTop=8;spacingLeft=2;spacingRight=12;shape=cube;size=10;direction=south;fontStyle=4;html=1;whiteSpace=wrap;fillColor=#dae8fc;strokeColor=#6c8ebf;" vertex="1" parent="1">
          <mxGeometry x="520" y="120" width="180" height="70" as="geometry" />
        </mxCell>
        <mxCell id="NEy-l1g9SyOyBoJQKaNl-10" value="&lt;font style=&quot;font-size: 13px;&quot;&gt;&amp;lt;&amp;lt;web-application&amp;gt;&amp;gt;&lt;/font&gt;&lt;div&gt;&lt;font style=&quot;font-size: 13px;&quot;&gt;RealEstateHub&lt;/font&gt;&lt;/div&gt;" style="text;align=center;fontStyle=1;verticalAlign=middle;spacingLeft=3;spacingRight=3;strokeColor=none;rotatable=0;points=[[0,0.5],[1,0.5]];portConstraint=eastwest;html=1;" vertex="1" parent="1">
          <mxGeometry x="530" y="140" width="150" height="30" as="geometry" />
        </mxCell>
        <mxCell id="NEy-l1g9SyOyBoJQKaNl-11" value="" style="verticalAlign=top;align=left;spacingTop=8;spacingLeft=2;spacingRight=12;shape=cube;size=10;direction=south;fontStyle=4;html=1;whiteSpace=wrap;fillColor=#dae8fc;strokeColor=#6c8ebf;" vertex="1" parent="1">
          <mxGeometry x="520" y="260" width="180" height="70" as="geometry" />
        </mxCell>
        <mxCell id="NEy-l1g9SyOyBoJQKaNl-12" value="&lt;font style=&quot;font-size: 13px;&quot;&gt;&amp;lt;&amp;lt;database&amp;gt;&amp;gt;&lt;/font&gt;&lt;div&gt;&lt;font style=&quot;font-size: 13px;&quot;&gt;MSSQL&lt;/font&gt;&lt;/div&gt;" style="text;align=center;fontStyle=1;verticalAlign=middle;spacingLeft=3;spacingRight=3;strokeColor=none;rotatable=0;points=[[0,0.5],[1,0.5]];portConstraint=eastwest;html=1;" vertex="1" parent="1">
          <mxGeometry x="530" y="280" width="150" height="30" as="geometry" />
        </mxCell>
        <mxCell id="NEy-l1g9SyOyBoJQKaNl-14" value="" style="endArrow=none;html=1;edgeStyle=orthogonalEdgeStyle;rounded=0;" edge="1" parent="1">
          <mxGeometry relative="1" as="geometry">
            <mxPoint x="609.5" y="260" as="sourcePoint" />
            <mxPoint x="609.5" y="190" as="targetPoint" />
            <Array as="points">
              <mxPoint x="609.5" y="230" />
              <mxPoint x="609.5" y="230" />
            </Array>
          </mxGeometry>
        </mxCell>
        <mxCell id="NEy-l1g9SyOyBoJQKaNl-17" value="&amp;lt;&amp;lt;EntityFramework&amp;gt;&amp;gt;" style="text;align=center;fontStyle=1;verticalAlign=middle;spacingLeft=3;spacingRight=3;strokeColor=none;rotatable=0;points=[[0,0.5],[1,0.5]];portConstraint=eastwest;html=1;" vertex="1" parent="1">
          <mxGeometry x="610" y="220" width="130" height="26" as="geometry" />
        </mxCell>
        <mxCell id="NEy-l1g9SyOyBoJQKaNl-23" value="" style="endArrow=none;html=1;rounded=0;exitX=0;exitY=0;exitDx=30;exitDy=0;exitPerimeter=0;entryX=0;entryY=0;entryDx=40;entryDy=180;entryPerimeter=0;" edge="1" parent="1" source="NEy-l1g9SyOyBoJQKaNl-4" target="NEy-l1g9SyOyBoJQKaNl-9">
          <mxGeometry width="50" height="50" relative="1" as="geometry">
            <mxPoint x="380" y="260" as="sourcePoint" />
            <mxPoint x="430" y="210" as="targetPoint" />
          </mxGeometry>
        </mxCell>
        <mxCell id="NEy-l1g9SyOyBoJQKaNl-24" value="&lt;span style=&quot;font-weight: normal;&quot;&gt;&amp;lt;&amp;lt;HTTP&amp;gt;&amp;gt;&lt;/span&gt;" style="text;align=center;fontStyle=1;verticalAlign=middle;spacingLeft=3;spacingRight=3;strokeColor=none;rotatable=0;points=[[0,0.5],[1,0.5]];portConstraint=eastwest;html=1;" vertex="1" parent="1">
          <mxGeometry x="370" y="190" width="80" height="26" as="geometry" />
        </mxCell>
        <mxCell id="NEy-l1g9SyOyBoJQKaNl-25" value="" style="verticalAlign=top;align=left;spacingTop=8;spacingLeft=2;spacingRight=12;shape=cube;size=10;direction=south;fontStyle=4;html=1;whiteSpace=wrap;fillColor=#e1d5e7;strokeColor=#9673a6;" vertex="1" parent="1">
          <mxGeometry x="415" y="440" width="115" height="70" as="geometry" />
        </mxCell>
        <mxCell id="NEy-l1g9SyOyBoJQKaNl-26" value="&amp;lt;&amp;lt;web service&amp;gt;&amp;gt;&lt;div&gt;Gmail&lt;/div&gt;" style="text;align=center;fontStyle=1;verticalAlign=middle;spacingLeft=3;spacingRight=3;strokeColor=none;rotatable=0;points=[[0,0.5],[1,0.5]];portConstraint=eastwest;html=1;" vertex="1" parent="1">
          <mxGeometry x="425" y="463" width="85" height="26" as="geometry" />
        </mxCell>
        <mxCell id="NEy-l1g9SyOyBoJQKaNl-27" value="" style="endArrow=none;html=1;rounded=0;exitX=-0.031;exitY=0.36;exitDx=0;exitDy=0;exitPerimeter=0;entryX=1;entryY=1;entryDx=0;entryDy=0;entryPerimeter=0;" edge="1" parent="1" source="NEy-l1g9SyOyBoJQKaNl-25" target="NEy-l1g9SyOyBoJQKaNl-9">
          <mxGeometry width="50" height="50" relative="1" as="geometry">
            <mxPoint x="400" y="330" as="sourcePoint" />
            <mxPoint x="450" y="280" as="targetPoint" />
          </mxGeometry>
        </mxCell>
        <mxCell id="NEy-l1g9SyOyBoJQKaNl-28" value="&lt;span style=&quot;font-weight: normal;&quot;&gt;&amp;lt;&amp;lt;SMTP&amp;gt;&amp;gt;&lt;/span&gt;" style="text;align=center;fontStyle=1;verticalAlign=middle;spacingLeft=3;spacingRight=3;strokeColor=none;rotatable=0;points=[[0,0.5],[1,0.5]];portConstraint=eastwest;html=1;" vertex="1" parent="1">
          <mxGeometry x="490" y="390" width="80" height="26" as="geometry" />
        </mxCell>
        <mxCell id="NEy-l1g9SyOyBoJQKaNl-29" value="" style="shape=note;whiteSpace=wrap;html=1;backgroundOutline=1;darkOpacity=0.05;fillColor=#ffe6cc;strokeColor=#d79b00;" vertex="1" parent="1">
          <mxGeometry x="425" y="540" width="185" height="40" as="geometry" />
        </mxCell>
        <mxCell id="NEy-l1g9SyOyBoJQKaNl-30" value="Obavijest o novom oglasu" style="text;html=1;align=center;verticalAlign=middle;whiteSpace=wrap;rounded=0;" vertex="1" parent="1">
          <mxGeometry x="425" y="545" width="160" height="30" as="geometry" />
        </mxCell>
        <mxCell id="NEy-l1g9SyOyBoJQKaNl-31" value="" style="endArrow=none;dashed=1;html=1;rounded=0;exitX=0.998;exitY=0.347;exitDx=0;exitDy=0;exitPerimeter=0;" edge="1" parent="1" source="NEy-l1g9SyOyBoJQKaNl-25">
          <mxGeometry width="50" height="50" relative="1" as="geometry">
            <mxPoint x="490" y="514" as="sourcePoint" />
            <mxPoint x="490" y="539" as="targetPoint" />
          </mxGeometry>
        </mxCell>
        <mxCell id="NEy-l1g9SyOyBoJQKaNl-32" value="" style="verticalAlign=top;align=left;spacingTop=8;spacingLeft=2;spacingRight=12;shape=cube;size=10;direction=south;fontStyle=4;html=1;whiteSpace=wrap;fillColor=#e1d5e7;strokeColor=#9673a6;" vertex="1" parent="1">
          <mxGeometry x="240" y="441" width="115" height="70" as="geometry" />
        </mxCell>
        <mxCell id="NEy-l1g9SyOyBoJQKaNl-33" value="&amp;lt;&amp;lt;web service&amp;gt;&amp;gt;&lt;div&gt;GoogleMaps&lt;/div&gt;" style="text;align=center;fontStyle=1;verticalAlign=middle;spacingLeft=3;spacingRight=3;strokeColor=none;rotatable=0;points=[[0,0.5],[1,0.5]];portConstraint=eastwest;html=1;" vertex="1" parent="1">
          <mxGeometry x="250" y="463" width="85" height="26" as="geometry" />
        </mxCell>
        <mxCell id="NEy-l1g9SyOyBoJQKaNl-34" value="" style="endArrow=none;html=1;rounded=0;exitX=0;exitY=0;exitDx=0;exitDy=52.50000000000001;exitPerimeter=0;entryX=0.798;entryY=1;entryDx=0;entryDy=0;entryPerimeter=0;" edge="1" parent="1" source="NEy-l1g9SyOyBoJQKaNl-32" target="NEy-l1g9SyOyBoJQKaNl-9">
          <mxGeometry width="50" height="50" relative="1" as="geometry">
            <mxPoint x="350" y="390" as="sourcePoint" />
            <mxPoint x="400" y="340" as="targetPoint" />
          </mxGeometry>
        </mxCell>
        <mxCell id="NEy-l1g9SyOyBoJQKaNl-35" value="&lt;span style=&quot;font-weight: normal;&quot;&gt;&amp;lt;&amp;lt;HTTP&amp;gt;&amp;gt;&lt;/span&gt;" style="text;align=center;fontStyle=1;verticalAlign=middle;spacingLeft=3;spacingRight=3;strokeColor=none;rotatable=0;points=[[0,0.5],[1,0.5]];portConstraint=eastwest;html=1;" vertex="1" parent="1">
          <mxGeometry x="360" y="350" width="80" height="26" as="geometry" />
        </mxCell>
        <mxCell id="NEy-l1g9SyOyBoJQKaNl-36" value="" style="shape=note;whiteSpace=wrap;html=1;backgroundOutline=1;darkOpacity=0.05;fillColor=#ffe6cc;strokeColor=#d79b00;" vertex="1" parent="1">
          <mxGeometry x="210" y="540" width="150" height="40" as="geometry" />
        </mxCell>
        <mxCell id="NEy-l1g9SyOyBoJQKaNl-37" value="Lokacija nekretnine" style="text;html=1;align=center;verticalAlign=middle;whiteSpace=wrap;rounded=0;" vertex="1" parent="1">
          <mxGeometry x="195" y="545" width="160" height="30" as="geometry" />
        </mxCell>
        <mxCell id="NEy-l1g9SyOyBoJQKaNl-39" value="" style="endArrow=none;dashed=1;html=1;rounded=0;entryX=1.024;entryY=0.661;entryDx=0;entryDy=0;entryPerimeter=0;" edge="1" parent="1" target="NEy-l1g9SyOyBoJQKaNl-32">
          <mxGeometry width="50" height="50" relative="1" as="geometry">
            <mxPoint x="279" y="540" as="sourcePoint" />
            <mxPoint x="450" y="420" as="targetPoint" />
          </mxGeometry>
        </mxCell>
      </root>
    </mxGraphModel>
  </diagram>
</mxfile>
